<?xml version="1.0" encoding="utf-8"?>
<!-- Generator: Adobe Illustrator 28.0.0, SVG Export Plug-In . SVG Version: 6.00 Build 0)  -->
<svg version="1.1" id="Vektorebene_00000028309462973294829930000011687789746591240835_"
	 xmlns="http://www.w3.org/2000/svg" xmlns:xlink="http://www.w3.org/1999/xlink" x="0px" y="0px" viewBox="0 0 105.4 124.5"
	 style="enable-background:new 0 0 105.4 124.5;" xml:space="preserve">
<style type="text/css">
	.st0{fill:#833613;}
	.st1{fill:#632908;}
	.st2{fill:#AB755E;}
	.st3{fill:#DAC2BA;}
	.st4{fill:#C29C8C;}
	.st5{fill:url(#);}
</style>
<g>
	<path class="st4" d="M94.2,38.3c-1.1-3.1-2.1-6.2-3.6-9.2c-0.8-1.6-1.7-3.1-2.4-4.7c-1.4-3.5-3-5.9-6.5-7.6
		c-1.9-0.8-3.7-1.7-5.6-2.5c-0.8-0.3-1.7-0.6-2.5-0.8c-0.6-0.3-1.3-0.6-2.1-0.9c-1-0.4-2.1-0.7-3.2-0.8c-0.3-0.1-0.6-0.2-0.8-0.3
		c-0.4-0.5-1.1-0.2-1.2,0.3c-1,0.1-2,0.4-2.8,1c-1.5,1.1-2.8,2.5-3.9,4c-1.8,2.5-3,5.3-4,8.1c-1.8,5.3-1.4,11-0.9,16.5
		C55,45.4,56.7,49.2,58,53c0.4,1.2,0.8,2.5,1.4,3.7c0.8,1.5,2,2.8,3.2,3.9c1.3,1.4,2.9,2.6,4.7,3.4c0.4,0.2,0.9,0.5,1.3,0.7
		c0.2,0.1,0.4,0.1,0.5,0c0.6,1.2,1.4,2.4,2.4,3.4c0.8,0.8,1.7,1.5,2.6,2.2c0.9,0.8,1.6,1.7,2.6,2.3c1.2,0.8,2.1-0.6,2.8-1.6
		c0,0,0,0,0,0c0.1,0,0.2,0.1,0.3,0c0.4-0.1,0.7-0.3,1.1-0.4c1-0.4,2.1-0.6,3.1-1.1c2-1.1,3.7-2.6,5.1-4.3c0.5-0.7,1-1.4,1.6-2
		c1.4-1.7,2.7-3.5,3.4-5.6C96.5,51.4,96.3,44.5,94.2,38.3z M67.3,62.8c-1.7-0.8-3.1-2.1-4.2-3.6c-1-1-1.7-2.3-2.2-3.6
		c-0.6-2.4-1-5-1.5-7.4c-0.3-1.7-0.7-3.4-0.9-5.2C57.9,38,57.2,32.8,58,27.7c0.4-2.1,1.1-4,1.8-6c0.7-2,1.4-3.9,2.8-5.6
		c-0.3,1.4-0.6,2.9-0.7,4.4c-0.3,2.4-0.6,4.8-0.2,7.2c0.4,2.4,1.8,4.4,2.7,6.6c0.6,1.5,0.8,3.1,1.1,4.6c0.4,1.8,0.7,3.6,0.8,5.4
		c0.3,2.8,0.6,5.5,0.7,8.3c0.2,3.7,0.6,7.4,1.9,10.9C68.2,63.3,67.8,63.1,67.3,62.8z M80.1,66.7c-0.8,1.5-1.7,2.9-2.6,4.3
		c-0.6-0.6-1.1-1.3-1.9-2c-1.2-1.1-2.7-2.1-3.6-3.5c-1-1.4-1.6-3-2-4.6c-0.5-2.6-0.9-5-0.9-7.6c0-2.4-0.1-4.7-0.2-7.1
		c-0.1-2.3,0-4.7-0.3-7c-0.2-1.8-0.3-3.6-0.9-5.3c-0.7-2.2-2-4.1-2.9-6.2c-0.7-2-0.6-4.2-0.6-6.3c-0.1-2.4,0-4.9,0.2-7.3
		c0.9-1,2.1-1,3.3-0.6c1.8,0.6,3.6,1.5,5.1,2.7c0.8,0.7,1.4,1.7,1.9,2.6c0.6,1.2,1.2,2.4,1.5,3.7c0.5,2.5,1.1,4.9,1.6,7.4
		c0.8,3.7,2.1,7.3,2.8,11.1c0.8,3.1,1.5,6.2,1.8,9.4c0.3,3.6,0.2,7.2-0.4,10.8C81.6,63.2,80.9,64.9,80.1,66.7z M90.2,59.7
		c-1,1.5-2.2,2.9-3.3,4.4c-0.9,1-1.8,1.8-2.8,2.7c-0.7,0.6-1.3,1.1-2,1.7c-0.3,0.2-0.7,0.4-1.1,0.6c0.8-1.1,1.6-2.3,2.1-3.6
		c2.2-4.3,2.5-9.2,2.5-13.9c-0.1-4.6-1.4-9-2.3-13.5c-0.9-3.6-2-7.2-2.6-10.9c-0.2-1-0.5-2.1-0.7-3.1c-0.4-2-0.8-3.9-1.8-5.7
		c0,0,0,0,0,0c1.7,0.9,3.4,1.8,4.7,3.3c1.3,1.5,1.8,3.6,2.7,5.3c0.6,1.3,1.4,2.6,2.1,3.9c1.9,4,3.5,8.2,4.7,12.5
		C93.5,48.9,93.1,54.9,90.2,59.7z"/>
	<path class="st4" d="M63.1,79.5c-1.2-1.8-2.4-3.5-3.9-5c-1.5-2-3.2-3.9-5.2-5.6c-1.7-1.3-3.3-2.6-5-3.8c-1.7-1.2-3.6-2.3-5.6-2.9
		c-3.1-0.8-6.3-0.7-9.4-0.2c-2.9,0.7-5.9,1.2-8.9,1.9c-2.1,0.4-4,1.3-5.7,2.4c-1.8,1.2-3.7,2.4-4.7,4.2c-0.3,0.6-0.6,1.3-0.8,1.9
		c-1.4,0.3-2.8,0.8-3.9,1.6c-0.6,0.6-0.7,1.7,0,2.2c-0.3,1.2-0.3,2.4-0.3,3.6c0.1,1.2,0.1,2.4,0.4,3.6c0.7,2.4,2.4,4.3,3.8,6.4
		c2.3,3.1,4.4,6.3,7.4,8.8c3,2.6,5.5,5.6,8.7,8c2.1,1.5,4.3,2.7,6.6,3.8c2.2,1.1,4.4,2.2,6.9,2.5c2.3,0.4,4.6-0.3,6.9-0.6
		c2.4-0.4,4.8-0.6,7.1-1.3c1.2-0.5,2.6-0.9,3.5-1.9c0.4-0.5,0.4-1.2,0.2-1.8c1.4-0.7,2.5-2.7,3.3-3.9c1.1-1.8,2.1-3.8,2.8-5.9
		c0.8-3.1,0.8-6.5,0.1-9.6C66.7,85.1,65.2,82.1,63.1,79.5z M53.6,109.8c-2.6,0.4-5.2,0.8-7.8,1.2c-3.4,0.1-6.4-1.7-9.2-3.3
		c-1.8-1.1-3.6-2.2-5.3-3.6c-2.8-2.5-5-5.6-7.9-8c-2.4-2.1-4.1-4.5-6.1-7.1c-1.5-2.1-3.3-4-4.3-6.4c-0.4-1.4-0.5-2.9-0.7-4.4
		c0-0.6,0-1.3,0.1-1.9c1.3-0.3,2.7-0.4,4.1-0.3c2.3,0.3,4.6,1.1,6.7,2.2c1.7,0.9,3.4,1.7,5,2.9c1.1,0.7,2.2,1.4,3.2,2.3
		c1.7,1.6,3.4,3.4,5.4,4.7c2.5,1.8,5.2,3.3,8.1,4.5c3.3,1.5,7,2.6,9.5,5.3c1.4,1.7,2.4,3.7,3.1,5.7c0.6,1.5,1.2,3.1,1.6,4.7
		C57.4,109.3,55.5,109.5,53.6,109.8z M21.9,74.2c1.3,0.1,2.6,0.4,3.9,0.9c1.8,0.6,3.6,1.1,5.3,2c1.6,0.8,3.3,1.5,4.8,2.6
		c1.1,0.7,2.2,1.4,3.2,2.2c0.7,0.6,1.3,1.4,1.9,2.1c1.6,1.8,3.3,3.5,4.9,5.2c-1.4-0.6-2.7-1.2-3.9-2c-1.8-1-3.6-2.3-5.2-3.7
		c-1.4-1.3-2.6-2.7-4.2-3.8c-2.5-1.8-5.3-3.2-8.2-4.4C23.5,74.8,22.7,74.5,21.9,74.2z M64.6,95.8c-0.2,2-0.8,4-1.4,5.9
		c-0.4,1.1-0.9,2.3-1.4,3.4c-0.2,0.4-0.5,0.8-0.8,1.2c-0.3-1.1-0.7-2.2-1.1-3.3c-0.8-2.6-1.6-5.3-3.3-7.5c-1.4-1.7-3.1-2.8-5-3.8
		c-1.1-0.7-2-1.6-3-2.4c-2-2.1-4.1-4.2-6-6.3c-0.7-0.8-1.3-1.6-2-2.4c-0.7-0.8-1.6-1.4-2.4-2c-2.4-2-4.7-4.1-7.6-5.3
		c-3.3-1.3-8.8-1.9-12.4-0.9c-0.2,0-0.5,0-0.7,0c0.8-1.4,2.3-2.3,3.6-3.3c2.4-1.8,5.3-2.4,8.2-3c1.7-0.3,3.4-0.6,5-1
		c2-0.3,4-0.5,6-0.3c4,0.2,6.9,2.3,10,4.7c1.6,1.1,3.1,2.3,4.4,3.8c0.7,0.8,1.3,1.8,1.9,2.7c0.7,0.9,1.4,1.8,2,2.7
		c0.6,1,1.2,2,1.8,3c2.2,3.3,3.9,7.1,4.2,11.1C64.7,93.6,64.7,94.7,64.6,95.8z"/>
</g>
</svg>
