<?xml version="1.0" encoding="utf-8"?>
<!-- Generator: Adobe Illustrator 28.0.0, SVG Export Plug-In . SVG Version: 6.00 Build 0)  -->
<svg version="1.1" id="Vektorebene_00000028309462973294829930000011687789746591240835_"
	 xmlns="http://www.w3.org/2000/svg" xmlns:xlink="http://www.w3.org/1999/xlink" x="0px" y="0px" viewBox="0 0 82 72.4"
	 style="enable-background:new 0 0 82 72.4;" xml:space="preserve">
<style type="text/css">
	.st0{fill:#833613;}
	.st1{fill:#632908;}
	.st2{fill:#AB755E;}
	.st3{fill:#DAC2BA;}
	.st4{fill:#C29C8C;}
	.st5{fill:url(#);}
</style>
<path class="st0" d="M69.7,37c-0.8-3.2-2.3-6.2-4.4-8.8c-1.2-1.8-2.4-3.5-3.9-5c-1.5-2-3.2-3.9-5.2-5.6c-1.7-1.3-3.3-2.6-5-3.8
	c-1.7-1.2-3.6-2.3-5.6-2.9c-3.1-0.8-6.3-0.7-9.4-0.2c-2.9,0.7-5.9,1.2-8.9,1.9c-2.1,0.4-4,1.3-5.7,2.4c-1.8,1.2-3.7,2.4-4.7,4.2
	c-0.3,0.6-0.6,1.3-0.8,1.9c-1.4,0.3-2.8,0.8-3.9,1.6c-0.6,0.6-0.7,1.7,0,2.2c-0.3,1.2-0.3,2.4-0.3,3.6c0.1,1.2,0.1,2.4,0.4,3.6
	c0.7,2.4,2.4,4.3,3.8,6.4c2.3,3.1,4.4,6.3,7.4,8.8c3,2.6,5.5,5.6,8.7,8c2.1,1.5,4.3,2.7,6.6,3.8c2.2,1.1,4.4,2.2,6.9,2.5
	c2.3,0.4,4.6-0.3,6.9-0.6c2.4-0.4,4.8-0.6,7.1-1.3c1.2-0.5,2.6-0.9,3.5-1.9c0.4-0.5,0.4-1.2,0.2-1.8c1.4-0.7,2.5-2.7,3.3-3.9
	c1.1-1.8,2.1-3.8,2.8-5.9C70.5,43.5,70.4,40.2,69.7,37z M55.8,58.5c-2.6,0.4-5.2,0.8-7.8,1.2c-3.4,0.1-6.4-1.7-9.2-3.3
	c-1.8-1.1-3.6-2.2-5.3-3.6c-2.8-2.5-5-5.6-7.9-8c-2.4-2.1-4.1-4.5-6.1-7.1c-1.5-2.1-3.3-4-4.3-6.4c-0.4-1.4-0.5-2.9-0.7-4.4
	c0-0.6,0-1.3,0.1-1.9c1.3-0.3,2.7-0.4,4.1-0.3c2.3,0.3,4.6,1.1,6.7,2.2c1.7,0.9,3.4,1.7,5,2.9c1.1,0.7,2.2,1.4,3.2,2.3
	c1.7,1.6,3.4,3.4,5.4,4.7c2.5,1.8,5.2,3.3,8.1,4.5c3.3,1.5,7,2.6,9.5,5.3c1.4,1.7,2.4,3.7,3.1,5.7c0.6,1.5,1.2,3.1,1.6,4.7
	C59.6,58,57.7,58.3,55.8,58.5z M24.1,22.9c1.3,0.1,2.6,0.4,3.9,0.9c1.8,0.6,3.6,1.1,5.3,2c1.6,0.8,3.3,1.5,4.8,2.6
	c1.1,0.7,2.2,1.4,3.2,2.2c0.7,0.6,1.3,1.4,1.9,2.1c1.6,1.8,3.3,3.5,4.9,5.2c-1.4-0.6-2.7-1.2-3.9-2c-1.8-1-3.6-2.3-5.2-3.7
	c-1.4-1.3-2.6-2.7-4.2-3.8c-2.5-1.8-5.3-3.2-8.2-4.4C25.8,23.5,25,23.2,24.1,22.9z M66.9,44.5c-0.2,2-0.8,4-1.4,5.9
	c-0.4,1.1-0.9,2.3-1.4,3.4c-0.2,0.4-0.5,0.8-0.8,1.2c-0.3-1.1-0.7-2.2-1.1-3.3c-0.8-2.6-1.6-5.3-3.3-7.5c-1.4-1.7-3.1-2.8-5-3.8
	c-1.1-0.7-2-1.6-3-2.4c-2-2.1-4.1-4.2-6-6.3c-0.7-0.8-1.3-1.6-2-2.4c-0.7-0.8-1.6-1.4-2.4-2c-2.4-2-4.7-4.1-7.6-5.3
	C29.5,20.6,24,20,20.4,21c-0.2,0-0.5,0-0.7,0c0.8-1.4,2.3-2.3,3.6-3.3c2.4-1.8,5.3-2.4,8.2-3c1.7-0.3,3.4-0.6,5-1c2-0.3,4-0.5,6-0.3
	c4,0.2,6.9,2.3,10,4.7c1.6,1.1,3.1,2.3,4.4,3.8c0.7,0.8,1.3,1.8,1.9,2.7c0.7,0.9,1.4,1.8,2,2.7c0.6,1,1.2,2,1.8,3
	c2.2,3.3,3.9,7.1,4.2,11.1C66.9,42.4,66.9,43.5,66.9,44.5z"/>
</svg>
